<svg width="52" height="40" viewBox="0 0 52 40" fill="none" xmlns="http://www.w3.org/2000/svg">
<path d="M34.6592 0.764499C36.8042 1.2061 38.8909 1.80809 40.9057 2.55838C42.7475 3.24426 44.2929 4.55494 45.3 6.24988C49.0686 12.5921 51.2458 19.5179 51.4489 27.1808C51.5409 30.6488 49.7043 33.8895 46.6731 35.5705C44.5542 36.7456 42.4616 37.6682 40.3876 38.4075C39.4297 38.7489 38.372 38.3986 37.828 37.5538C37.6166 37.2254 37.4111 36.8929 37.2118 36.5563C36.8162 35.8885 37.1267 34.9833 37.9175 34.6177C38.4915 34.3524 39.0553 34.0684 39.6079 33.7667C40.3506 33.3612 40.3725 32.3571 39.7529 31.8647C39.4134 31.5949 38.9497 31.5358 38.553 31.7145C30.4562 35.3613 21.6044 35.3615 13.4089 31.7114C13.0133 31.5352 12.5527 31.5942 12.2143 31.8645C11.6009 32.3543 11.6118 33.3598 12.3584 33.7671C12.9113 34.0687 13.4757 34.3529 14.0508 34.6187C14.8358 34.9815 15.1433 35.8791 14.7511 36.5407C14.5501 36.8799 14.343 37.2148 14.1298 37.5455C13.5841 38.3923 12.5242 38.7438 11.5651 38.4015C9.49468 37.6625 7.4055 36.7406 5.28934 35.5672C2.26067 33.8878 0.425691 30.6503 0.514704 27.1848C0.691059 20.3189 2.46836 13.3709 6.63935 6.29223C7.6508 4.57569 9.20782 3.24522 11.0678 2.55252C13.0761 1.80456 15.1565 1.20413 17.2949 0.763966C17.9527 0.628587 18.6051 0.939841 18.8999 1.52905C19.4234 2.57549 20.5519 3.21548 21.7275 3.08777C24.5486 2.78132 27.3893 2.78249 30.2501 3.09159C31.4215 3.21815 32.5447 2.57802 33.0603 1.53149C33.3509 0.941511 34.0015 0.629103 34.6592 0.764499ZM12.1784 21.7256C12.1784 24.8153 14.4561 27.4478 17.35 27.4478C20.29 27.4478 22.524 24.815 22.5217 21.7292C22.5681 18.6271 20.2843 15.9994 17.35 15.9994C14.4078 15.9994 12.1784 18.6398 12.1784 21.7256ZM29.4427 21.7256C29.4427 24.8153 31.7204 27.4478 34.6143 27.4478C37.5549 27.4478 39.7841 24.8142 39.786 21.7295C39.8326 18.6273 37.5486 15.9994 34.6143 15.9994C31.672 15.9994 29.4427 18.6398 29.4427 21.7256Z" fill="#5869EA" stroke="#5869EA"/>
</svg>
