<svg width="28" height="31" viewBox="0 0 28 31" fill="none" xmlns="http://www.w3.org/2000/svg">
<path d="M27.9431 19.979C27.8035 19.9471 27.6794 19.1336 27.6329 18.9901C27.5864 18.8466 27.3072 18.0172 27.3072 18.0172C27.0281 19.1336 26.0356 20.4415 25.1827 20.4415C24.3298 20.4415 23.694 19.4207 23.632 19.2772C23.5544 19.1336 23.7715 18.6871 23.632 18.5435C23.4924 18.4 23.2133 17.9853 23.2133 17.746C23.2133 17.5068 23.4924 17.459 23.5699 17.0921C23.6475 16.7253 24.2057 16.5817 24.2057 16.0714C24.2057 15.561 24.7175 15.0028 24.7175 14.6359C24.7175 14.2691 24.0041 14.1734 23.9576 13.9022C23.9111 13.6311 24.826 13.5354 24.7795 13.0729C24.733 12.6103 23.6475 11.765 23.6165 11.0632C23.5854 10.3615 25.1052 9.43641 25.3843 9.43641C25.6635 9.43641 25.8806 8.78249 25.4774 8.75059C25.0742 8.71869 25.1672 8.04881 25.5084 7.82552C25.834 7.60223 26.4543 7.45868 26.4543 7.31514C26.4543 7.1716 26.811 6.72501 26.873 6.15083C26.9506 5.57666 26.4078 6.00729 25.8806 6.46982C25.3688 6.93235 24.8881 6.50172 24.5779 6.64527C24.2678 6.78881 24.8881 7.72982 24.702 7.84147C24.5159 7.93717 24.4849 8.11261 24.3918 8.57514C24.2988 9.03768 23.1823 8.79844 23.1202 8.60704C23.0427 8.41565 22.7946 8.12856 22.624 8.22426C22.4534 8.31995 21.8641 8.51135 21.7556 8.3997C21.6315 8.2721 21.0422 8.06476 21.0732 8.4316C21.1042 8.79843 20.6545 9.35666 20.3599 9.35666C20.0808 9.35666 19.6 8.5273 19.4915 8.28805C19.3674 8.04881 19.5845 7.68198 19.4605 7.29919C19.3364 6.91641 18.6386 7.37894 18.7316 7.72983C18.8246 8.09666 17.9717 8.3678 17.5996 8.38375C17.2274 8.41565 17.1808 7.92122 16.7777 7.95312C16.3745 7.98502 15.6766 7.58628 15.6766 6.50172C15.6766 5.41716 17.0413 4.69944 17.3514 4.69944C17.6616 4.69944 18.2509 5.11412 18.5765 5.11412C18.9022 5.11412 19.3054 4.69944 19.5845 4.69944C19.8636 4.69944 20.1273 4.97058 20.3599 4.97058C20.5925 4.97058 20.639 4.68349 21.0732 4.68349C21.4919 4.68349 21.9261 5.00248 22.0347 4.53994C22.1588 4.07741 23.0427 2.81741 23.5234 2.30703C23.9886 1.79665 24.1902 -0.627661 23.5234 0.153859C22.8566 0.93538 21.6625 1.70095 21.2283 1.44576C20.8096 1.17462 20.3754 1.41386 19.8636 2.00399C19.3519 2.57817 18.5455 2.46652 18.1113 2.21133C17.6926 1.94019 17.522 1.73285 16.6691 3.05665C15.8162 4.3964 14.9012 4.55589 13.366 4.26881C11.8308 3.98172 11.9548 5.56071 11.195 6.83666C10.4351 8.12856 9.61319 7.53843 8.8068 7.0121C8.00041 6.48577 8.99289 6.02324 8.99289 6.02324C10.249 5.27362 8.76028 4.93868 8.31056 4.81108C7.86084 4.68349 8.23302 3.47133 7.7678 3.47133C7.30257 3.47133 6.71329 5.06628 6.07748 5.8478C5.44167 6.62932 4.71282 6.07109 4.57325 6.27843C4.43368 6.50172 4.89891 7.36299 5.44167 7.76172C5.98443 8.14451 5.13152 8.70274 5.62776 9.05363C6.124 9.38856 5.62776 10.6007 4.99195 9.88299C4.35615 9.14932 3.58077 11.2706 2.96047 11.3184C2.37119 11.3025 0.262165 9.93084 0.773913 10.3296C0.78942 10.3455 0.820435 10.3615 0.835943 10.3774C1.25465 10.8081 0.758405 11.9564 0.820435 12.0681C0.897973 12.1957 2.57278 12.3552 2.57278 12.9453C2.57278 13.5354 1.30117 14.1893 1.17711 14.5402C1.05305 14.9071 2.63481 15.8959 2.4022 16.2628C2.16959 16.6296 2.66583 18.3521 2.66583 18.3521C2.44872 20.6488 0.634345 20.4415 0.0915826 20.585C-0.45118 20.7286 1.59581 23.1529 1.59581 23.1529C1.59581 23.1529 3.53425 23.6792 3.53425 25.1625C3.53425 26.6458 2.54177 27.0605 2.54177 27.0605C3.67382 27.2359 5.84487 27.7144 7.19402 28.5438C8.54317 29.3732 7.55069 30.5375 8.27954 30.7289C9.0084 30.9203 10.1249 29.5167 10.7607 29.6921C11.3966 29.8676 12.5751 30.7129 13.0248 30.6332C13.4746 30.5534 14.2809 28.5278 15.1959 28.8628C16.1108 29.1977 17.4135 30.5375 17.4135 30.5375C17.8632 30.5853 18.8091 31 18.8091 31C19.2278 27.5071 22.4379 27.4273 22.5775 27.1881C22.717 26.9489 22.4379 25.2423 22.624 24.7159C22.8101 24.1896 23.5389 24.1577 23.9266 24.078C24.2988 23.9982 24.733 23.9982 24.702 23.5038C24.671 22.9934 25.6169 22.1162 26.1132 21.7653C26.6094 21.3985 27.3228 20.6169 27.6484 20.4574C27.9586 20.2661 28.0826 20.0109 27.9431 19.979ZM13.273 27.6187C8.29505 27.6187 4.2631 23.4719 4.2631 18.3521C4.2631 13.2324 8.29505 9.08552 13.273 9.08552C18.2509 9.08552 22.2828 13.2324 22.2828 18.3521C22.2673 23.4719 18.2354 27.6187 13.273 27.6187Z" fill="#C81B10"/>
</svg>
