<svg width="62" height="43" viewBox="0 0 62 43" fill="none" xmlns="http://www.w3.org/2000/svg">
<path fill-rule="evenodd" clip-rule="evenodd" d="M20.6 21.5001L17.5801 22.4131C18.3113 23.9555 18.5975 24.8054 19.2332 27.2293L20.3776 26.9146C20.6375 27.8012 20.8288 28.7062 20.9499 29.6216H22.1261C24.0018 29.6216 25.3688 29.4643 26.1318 29.1181C27.4033 28.5823 28.2299 27.2608 28.6106 25.1833C28.9499 23.1732 29.1623 21.1441 29.2465 19.1078C29.2783 18.5097 29.3101 18.0689 29.3736 17.5338C28.6236 17.6076 27.8701 17.6391 27.1165 17.6282H8.55151V16.432H26.9899C27.9982 16.4184 29.0064 16.4604 30.0099 16.558V12.5286C29.0282 12.6337 28.0407 12.6758 27.0535 12.6546H8.55151V11.5214H22.4118C23.5245 11.5214 24.5736 11.5529 25.3049 11.6158C25.2044 10.6537 25.1619 9.68665 25.1776 8.71962V5.41448C25.1642 4.45794 25.2067 3.50144 25.3049 2.54977C24.3441 2.65098 23.3779 2.69307 22.4118 2.67578H15.895C16.2442 2.10916 16.7534 1.16469 17.1985 0.251848L11.7307 0C11.5041 0.939363 11.14 1.84084 10.6498 2.67578H6.54874C5.58275 2.69307 4.61661 2.65098 3.65588 2.54977C3.75119 3.5257 3.81473 4.59601 3.81473 5.7607V17.9123C3.83367 19.0994 3.79126 20.2867 3.68765 21.4695L2.98835 21.1862C2.19356 23.862 1.49426 25.247 0 27.1669L4.06907 30C5.43608 27.765 6.19874 25.9706 7.08902 22.8542L3.91004 21.5637C4.89563 21.5006 5.30882 21.5006 6.13538 21.5006L20.6 21.5001ZM24.3512 21.5001C24.3138 22.579 24.1862 23.653 23.9698 24.711C23.8108 25.2776 23.6207 25.4349 23.0795 25.4349C22.6824 24.2304 22.1826 23.0615 21.5855 21.9409C21.5217 21.8465 21.4582 21.689 21.3629 21.5001H24.3512ZM8.55151 6.57917H20.4092V7.96424H8.55151V6.57917ZM7.34353 22.7908C7.53433 24.5539 7.66141 26.82 7.66141 28.4569C7.66141 28.6773 7.66141 29.0235 7.62964 29.4643L12.0485 29.0866C11.8577 26.0646 11.6669 24.3963 11.2855 22.4446L7.34353 22.7908ZM12.5253 22.6649C13.0786 24.621 13.451 26.6228 13.6379 28.6457L17.9297 27.8272C17.4211 25.4033 17.0714 24.0813 16.3402 22.0351L12.5253 22.6649ZM43.3408 3.62008C43.3306 2.78932 43.373 1.95873 43.4678 1.13323C42.592 1.23122 41.7106 1.27331 40.8293 1.25924H35.3924C34.4582 1.26736 33.5243 1.22529 32.5948 1.13323C32.6901 2.20354 32.7219 2.92763 32.7219 3.96631V19.0132C32.7331 20.0536 32.6907 21.0938 32.5948 22.1298C33.2497 22.0661 33.9081 22.045 34.5658 22.0667C33.5484 24.5535 32.8809 25.6868 31.3549 27.4812C32.9762 28.3311 33.8346 28.8977 35.1063 29.9995C36.6957 27.7959 37.3634 26.5683 38.2535 24.1444C39.1437 26.5052 39.7158 27.7016 40.9873 29.6847C42.4816 28.4884 43.2444 27.9532 44.5796 27.1979C43.3402 25.4348 42.8312 24.5221 41.8456 22.0667C42.7677 22.0667 42.863 22.0982 43.4034 22.1298C43.3717 21.5939 43.3399 20.8705 43.3399 19.4851L43.3408 3.62008ZM38.2226 23.5463L34.9799 22.0667H41.2107L38.2226 23.5463ZM39.1444 5.41396V7.17707H37.1088V5.41396H39.1444ZM37.1099 10.7033H39.1444V12.529H37.1088V10.7029L37.1099 10.7033ZM37.1099 16.1482H39.1444V17.9426H37.1088V16.1487L37.1099 16.1482ZM49.5716 17.9113C50.1136 17.9066 50.6553 17.9382 51.193 18.0058V13.8508C50.6558 13.9236 50.1137 13.9552 49.5716 13.9452V12.749C49.5716 11.5218 49.6034 11.0492 49.6669 10.2307H45.3426C45.4062 11.1435 45.438 11.5529 45.438 12.8434V13.9452C44.9697 13.9291 44.5027 13.8871 44.0392 13.8193V18.006C44.5035 17.9511 44.9704 17.9196 45.438 17.9115V21.8779C45.438 23.263 45.4062 23.7036 45.3426 24.5536H48.2355C47.5382 25.0305 46.8166 25.4718 46.0737 25.8757C47.2961 26.9624 48.3462 28.2252 49.1886 29.6216C51.2867 28.1422 52.4311 27.1349 54.0843 25.3091C55.5157 28.3626 56.9453 29.7791 58.5985 29.7791C60.6965 29.7791 61.7774 27.4497 62 22.4446C60.909 21.9359 59.9015 21.2673 59.0116 20.4614C58.8846 22.8852 58.6938 24.2073 58.4705 24.2073L58.4068 24.1444C58.3713 24.0369 58.3288 23.9318 58.2797 23.8296C57.8299 23.0376 57.4573 22.2049 57.167 21.3428C58.4686 19.364 59.5757 17.2663 60.4733 15.0784C61.109 13.5989 61.2361 13.3471 61.5222 12.749L57.3896 10.7344C57.0905 12.2098 56.6211 13.6462 55.9908 15.0155C55.8636 13.5989 55.8636 13.2524 55.8 11.0177C55.8 10.672 55.8 10.1362 55.7683 9.4437H58.0254C59.2969 9.4437 60.4733 9.50662 61.6812 9.60117V4.9737C60.9553 5.08026 60.2212 5.12244 59.4877 5.09971L61.2998 4.09232C60.6046 2.77018 59.785 1.51593 58.8519 0.346227L55.7697 2.04624C56.4908 3.0156 57.139 4.03618 57.7089 5.09971H55.6745C55.6426 3.71463 55.6108 2.95909 55.6108 2.83307C55.5923 2.02984 55.667 1.22715 55.8334 0.440778H50.8742C51.0331 1.35362 51.0648 1.60547 51.0966 5.09971H47.7275C45.7883 5.09971 44.8347 5.06808 44.0081 4.94224V9.56971C45.0858 9.46841 46.1684 9.42635 47.2508 9.4437H51.1928C51.4471 14.4174 51.8285 17.7234 52.5278 20.6502C51.659 21.7151 50.6787 22.6859 49.6032 23.5463C49.5714 22.8222 49.5714 22.5075 49.5714 21.9094L49.5716 17.9113Z" fill="#C81B10"/>
<path d="M4.33141 40.8896V36H5.21123V40.8896C5.21123 41.3449 5.12111 41.729 4.94086 42.042C4.76062 42.355 4.51165 42.5937 4.19393 42.7581C3.87927 42.9194 3.51727 43 3.1079 43C2.69854 43 2.33501 42.9273 2.01729 42.7818C1.69958 42.6364 1.4506 42.4151 1.27036 42.1179C1.09012 41.8207 1 41.446 1 40.9939H1.8844C1.8844 41.2848 1.93634 41.5235 2.0402 41.71C2.14407 41.8966 2.28765 42.0341 2.47095 42.1226C2.6573 42.2112 2.86962 42.2554 3.1079 42.2554C3.34008 42.2554 3.54781 42.2048 3.73111 42.1037C3.91746 41.9993 4.0641 41.846 4.17102 41.6436C4.27794 41.4381 4.33141 41.1868 4.33141 40.8896Z" fill="#C81B10"/>
<path d="M9.06594 36V42.9051H8.18154V36H9.06594Z" fill="#C81B10"/>
<path d="M12.2608 36L13.9929 39.4668L15.7297 36H16.7332L14.4328 40.3252V42.9051H13.5484V40.3252L11.2481 36H12.2608Z" fill="#C81B10"/>
<path d="M22.3751 36H23.2549V40.6714C23.2549 41.1899 23.1434 41.6215 22.9204 41.9661C22.6974 42.3107 22.401 42.57 22.0314 42.7439C21.6648 42.9146 21.2661 43 20.8354 43C20.3832 43 19.9739 42.9146 19.6073 42.7439C19.2438 42.57 18.9551 42.3107 18.7412 41.9661C18.5304 41.6215 18.425 41.1899 18.425 40.6714V36H19.3003V40.6714C19.3003 41.0318 19.3644 41.329 19.4927 41.563C19.621 41.797 19.7998 41.9709 20.0289 42.0847C20.2611 42.1985 20.5299 42.2554 20.8354 42.2554C21.1439 42.2554 21.4128 42.1985 21.6419 42.0847C21.8741 41.9709 22.0543 41.797 22.1826 41.563C22.3109 41.329 22.3751 41.0318 22.3751 40.6714V36Z" fill="#C81B10"/>
<path d="M31.1834 36V42.9051H30.2944L26.9355 37.5793V42.9051H26.0511V36H26.9355L30.3081 41.3401V36H31.1834Z" fill="#C81B10"/>
<path d="M36.7106 36.6118L34.5019 42.9051H33.5992L36.1424 36H36.7244L36.7106 36.6118ZM38.5619 42.9051L36.3486 36.6118L36.3349 36H36.9169L39.4693 42.9051H38.5619ZM38.4474 40.3489V41.0982H34.699V40.3489H38.4474Z" fill="#C81B10"/>
<path d="M46.4547 36V42.9051H45.5703V36H46.4547Z" fill="#C81B10"/>
<path d="M50.3552 36V42.9051H49.4708V36H50.3552ZM54.3831 36L51.6108 39.2202L50.0528 40.8943L49.9061 39.9173L51.0792 38.5799L53.32 36H54.3831ZM53.5308 42.9051L51.0609 39.5379L51.5879 38.8123L54.5848 42.9051H53.5308Z" fill="#C81B10"/>
<path d="M59.2414 36.6118L57.0327 42.9051H56.1299L58.6732 36H59.2551L59.2414 36.6118ZM61.0927 42.9051L58.8794 36.6118L58.8656 36H59.4476L62 42.9051H61.0927ZM60.9781 40.3489V41.0982H57.2297V40.3489H60.9781Z" fill="#C81B10"/>
</svg>
