<svg width="92" height="95" viewBox="0 0 92 95" fill="none" xmlns="http://www.w3.org/2000/svg">
<path d="M59.8462 71.1107C58.7953 70.1349 57.7194 69.1841 56.7185 68.1582C49.65 61.0022 42.6066 53.8461 35.5506 46.6776C33.2612 44.3506 30.9592 42.0236 28.6823 39.6967C28.3946 39.4089 28.2319 39.4089 27.9317 39.7092C24.9041 42.7743 21.8515 45.8143 18.8365 48.8794C18.4737 49.2547 18.286 49.2422 17.9232 48.8669C14.4202 45.3389 10.9048 41.8235 7.37679 38.3205C7.01398 37.9702 6.97645 37.77 7.36428 37.3947C12.9065 32.1403 18.4361 26.8733 23.9658 21.6064C25.342 20.3053 26.7181 19.0042 28.0818 17.6905C28.3195 17.4654 28.5447 17.3653 28.9075 17.4028C35.0877 18.1034 41.2679 18.7915 47.4482 19.4671C47.5733 19.4796 47.6859 19.5171 47.836 19.5421C47.7734 19.8048 47.5733 19.9425 47.4231 20.0926C43.6825 23.8583 39.9418 27.6114 36.1761 31.3646C35.8384 31.6899 35.8509 31.8775 36.1886 32.2028C40.6674 36.5815 45.1337 40.9602 49.5875 45.3639C56.0805 51.7819 62.5609 58.2248 69.0414 64.6678C69.3417 64.968 69.4918 65.0306 69.8046 64.6678C72.9572 60.9521 74.5961 56.636 74.9965 51.8069C75.4844 45.9645 74.2583 40.3847 72.2441 34.9551C69.3417 27.1235 65.038 20.0801 60.1589 13.3494C57.0313 9.07076 53.6659 4.9798 50.163 0.988929C49.8752 0.663654 49.575 0.3634 49.2372 0.000593493C49.6625 -0.0119171 49.9253 0.175742 50.213 0.338379C55.7177 3.62866 60.9846 7.28175 65.8762 11.4478C71.3684 16.1267 76.2851 21.3311 80.1884 27.4238C83.7288 32.9535 86.256 38.8835 87.1192 45.4515C88.5079 55.9979 85.7305 65.3058 78.7496 73.3376C78.3993 73.7379 78.3743 73.9381 78.7747 74.3134C82.3652 77.7914 85.9182 81.2818 89.4837 84.7848C90.447 85.7356 91.1851 86.8365 91.4604 88.1877C91.9608 90.7023 90.5471 93.292 88.1075 94.3929C85.4428 95.5939 83.0908 95.0059 80.8514 92.6915C78.3743 90.1268 75.8722 87.6122 73.3701 85.0725C72.1566 83.8465 70.9305 82.6205 69.7545 81.3694C69.4167 81.0066 69.1665 80.944 68.7036 81.1942C64.9755 83.1834 61.0096 84.4345 56.8186 84.9474C51.389 85.6105 46.1095 84.9975 40.9802 83.1209C36.1261 81.3444 31.86 78.6171 28.0443 75.1516C27.8191 74.939 27.5814 74.7388 27.3437 74.5261C27.2811 74.4761 27.2061 74.4385 27.0809 74.351C26.4179 77.0407 24.2661 78.004 21.9891 78.8047C21.4637 78.9924 21.1134 79.2801 20.8006 79.7305C19.0742 82.2576 17.5979 84.9474 15.8339 87.4495C13.7447 90.402 11.23 92.8541 7.91474 94.4054C6.77628 94.9309 5.62531 94.8308 4.48685 94.5931C1.24661 93.9175 -0.367259 91.3653 0.0706115 88.0751C0.333334 86.1109 1.38422 84.6472 2.57273 83.2335C5.01229 80.331 8.03985 78.1417 11.18 76.0649C12.7563 75.0265 14.3452 74.0007 15.9465 72.9748C16.2718 72.7746 16.4344 72.5119 16.5345 72.1491C16.9224 70.873 17.4978 69.722 18.5863 68.8713C19.4995 68.1582 20.5504 67.8955 21.6764 67.908C21.9266 67.908 22.1643 67.9581 22.2769 67.6203C22.8899 65.9564 24.3787 65.7312 25.8799 66.4568C25.9925 66.5068 26.0926 66.5819 26.2052 66.6444C27.0935 67.2074 27.0935 67.2074 27.8191 66.3942C28.307 65.8563 28.7949 65.3183 29.2703 64.7553C29.4955 64.4926 29.6331 64.4676 29.9083 64.7053C31.0843 65.6686 32.1477 66.757 33.3863 67.6453C37.4522 70.5352 41.9936 72.1366 46.9227 72.6745C51.1388 73.1374 55.2673 72.7621 59.3082 71.436C59.4333 71.411 59.5959 71.411 59.8462 71.1107Z" fill="#FBD016"/>
</svg>
